<?xml version="1.0" encoding="utf-8"?>
<!-- Generator: Adobe Illustrator 19.1.0, SVG Export Plug-In . SVG Version: 6.00 Build 0)  -->
<svg version="1.1" id="Layer_1" xmlns="http://www.w3.org/2000/svg" xmlns:xlink="http://www.w3.org/1999/xlink" x="0px" y="0px"
	 viewBox="0 0 540.86 116.17" style="enable-background:new 0 0 540.86 116.17;" xml:space="preserve">
<style type="text/css">
	.st0{fill:#43494E;}
	.st1{fill-rule:evenodd;clip-rule:evenodd;fill:#02AE53;}
</style>
<g>
	<g>
		<path class="st0" d="M72.17,27.13c-2.06-0.84-4.04-1.25-6.05-1.25c-4.47,0-7.96,2.06-11.05,3.88c-2.54,1.5-4.94,2.91-7.52,2.91
			c-2.49,0-4.4-1.18-6.83-2.69c-2.99-1.86-6.39-3.97-11.34-3.97c-2,0-4.03,0.34-6.22,1.05C6.52,32.44,0.63,51.83,0.63,66.8
			c0,19.91,14.56,47.95,46.92,47.95c32.23,0,46.91-24.86,46.91-47.95C94.46,48.27,85.71,32.7,72.17,27.13z M47.54,107.11
			c-27.09,0-39.27-23.57-39.27-40.31c0-13.39,5.33-28.62,17.23-32.47c1.42-0.46,2.69-0.68,3.87-0.68c2.78,0,4.78,1.24,7.32,2.82
			c2.9,1.8,6.18,3.83,10.85,3.83c4.67,0,8.25-2.11,11.41-3.97c2.57-1.51,4.89-2.76,7.31-2.76c1,0,1.98,0.2,3.01,0.62
			c10.66,4.38,17.55,17.18,17.55,32.6C86.81,86.22,74.52,107.11,47.54,107.11z"/>
		<path class="st0" d="M176.44,106.1h-7.36V73.42c0-11.53-2.4-24.77-21.12-24.77c-12.19,0-20.45,7.32-24.43,13.3
			c0-0.03,0-4.08,0-4.08c0-5.3-2.58-7.76-8.13-7.76h-7.11c-1.75,0-3.32,1.26-3.54,2.99c-0.27,2.1,1.37,3.9,3.42,3.9h6.5
			c0.88,0,1.59,0.71,1.59,1.59v47.51h-7.36c-1.75,0-3.32,1.26-3.54,2.99c-0.27,2.1,1.37,3.9,3.42,3.9h22.11
			c1.75,0,3.32-1.26,3.54-2.99c0.27-2.1-1.37-3.9-3.42-3.9h-7.48V81.8c0-14.34,10.96-26.01,24.43-26.01
			c11.59,0,13.86,7.13,13.86,19.45v33.98c0,2.09,1.69,3.78,3.78,3.78h10.97c2.05,0,3.69-1.8,3.42-3.9
			C179.75,107.36,178.19,106.1,176.44,106.1z"/>
		<path class="st0" d="M217.06,48.65c-8.2,0-15.78,3.07-21.35,8.64c-6.05,6.05-9.24,14.48-9.24,24.39c0,19,13.63,32.78,32.42,32.78
			c5.59,0,10.93-1.43,16.32-4.39c1.51-0.84,2.84-1.69,4.04-2.6c1.25-0.94,1.88-2.91,1.26-4.35c-0.71-1.65-2.49-2.52-4.26-2.05
			c-0.48,0.13-0.91,0.38-1.3,0.68c-0.87,0.67-1.79,1.29-2.75,1.83c-2.88,1.7-7.52,3.74-13.3,3.74c-14.33,0-24.44-10.44-24.9-25.53
			h45.65c1.72,0,3.14-1.35,3.24-3.07c0.03-0.59,0.06-1.08,0.06-1.29c0-7.83-2.27-14.94-6.39-20.04
			C231.9,51.67,225.17,48.65,217.06,48.65z M194.54,74.89c2.41-11.79,11.08-19.34,22.39-19.34c10.72,0,17.54,7.2,18.41,19.34H194.54
			z"/>
		<path class="st0" d="M327.46,87.64c-2.07,0-3.75,1.68-3.75,3.75v4.01c0,8.32-16.82,11.92-25.4,11.92
			c-10.13,0-19.45-3.98-26.26-11.21c-6.73-7.16-10.44-16.86-10.44-27.31c0-21.27,15.62-37.3,36.33-37.3
			c8.52,0,24.43,3.53,24.43,12.04v4.13c0,2.07,1.68,3.75,3.75,3.75s3.75-1.68,3.75-3.75v-5.34c0-13.09-19.66-17.96-32.05-17.96
			c-24.99,0-43.84,19.11-43.84,44.44c0,12.35,4.44,23.81,12.49,32.28c8.2,8.63,19.51,13.38,31.83,13.38
			c10.74,0,32.9-4.36,32.9-17.84v-5.22C331.22,89.32,329.53,87.64,327.46,87.64z"/>
		<path class="st0" d="M362.95,106.3c-0.07,0-0.14,0-0.21,0.01c-0.36,0.02-0.71,0.04-1.03,0.04c-2.61,0-6.09-0.86-6.09-8.27V29.05
			c0-1.79-1.45-3.24-3.24-3.24l-11.87,0c-1.75,0-3.32,1.26-3.54,2.99c-0.27,2.1,1.37,3.9,3.42,3.9h7.97v65.85
			c0,12.14,6.8,14.69,12.5,14.69c0.5,0,1.2-0.03,2.18-0.09c1.69-0.11,3.14-1.38,3.31-3.07c0.1-1.03-0.24-2.02-0.95-2.75
			C364.74,106.67,363.87,106.3,362.95,106.3z"/>
		<path class="st0" d="M427.96,106.1h-4.92c-0.88,0-1.59-0.71-1.59-1.59V72.08c0-15.55-7.47-23.43-22.22-23.43
			c-6.03,0-11.68,1.21-15.89,3.38c-1.32,0.62-2.47,1.26-3.53,1.94c-0.81,0.53-1.36,1.34-1.54,2.3c-0.18,0.96,0.03,1.97,0.6,2.77
			l0.06,0.08c0.67,0.95,1.77,1.52,2.93,1.52c0.7,0,1.38-0.2,1.97-0.58c0.96-0.61,1.92-1.15,2.84-1.57
			c2.72-1.21,6.98-2.82,12.44-2.82c10.14,0,15.08,5.41,15.08,16.53v1.59h-2.93c-9.58,0-38.74,0-38.74,21.61
			c0,13.09,11.14,19.06,21.49,19.06c7.03,0,12.77-2.58,17.55-7.87c0.99-1.05,1.87-2.15,2.63-3.29c0,0.2,0,0.4,0,0.61v1.34
			c0,5.37,2.51,7.76,8.12,7.76h5.65c1.9,0,3.45-1.55,3.45-3.45S429.86,106.1,427.96,106.1z M394.01,107.56
			c-9.61,0-13.98-6.62-13.98-12.77c0-6.44,5.01-14.12,28.85-14.12c0.65,0,1.21,0.01,1.68,0.01c0.33,0,0.6,0.01,0.83,0.01h2.81v2.2
			C414.19,94.85,407.12,107.56,394.01,107.56z"/>
		<path class="st0" d="M464.12,77.75l-0.34-0.13c-8.03-3.1-15.61-6.02-15.61-12.59c0-6.35,7-9.25,13.5-9.25
			c5.97,0,11.15,2.17,12.59,5.29c0.62,1.34,1.95,2.2,3.4,2.2c0.39,0,0.79-0.06,1.16-0.19l0.27-0.09c0.96-0.32,1.73-1,2.17-1.9
			c0.44-0.9,0.5-1.91,0.16-2.85c-2.51-7.04-13.33-9.59-20-9.59c-10.32,0-20.76,5.75-20.76,16.75c0,11.09,10.3,15.15,19.41,18.75
			l0.11,0.04c8.58,3.17,16.68,6.17,16.68,13.16c0,4.8-4.64,9.97-14.83,9.97c-6.99,0-14.83-2.46-16.28-7.17
			c-0.46-1.48-1.89-2.52-3.49-2.52c-0.15,0-0.29,0.01-0.44,0.03c-1.08,0.13-2.05,0.72-2.65,1.63c-0.6,0.91-0.77,2.02-0.47,3.06
			c2.08,7.13,11.47,12.11,22.84,12.11c13.65,0,22.82-7.07,22.82-17.6C484.36,85.54,473.14,81.22,464.12,77.75z"/>
		<path class="st0" d="M519.99,77.75l-0.34-0.13c-8.03-3.1-15.61-6.02-15.61-12.59c0-6.35,7-9.25,13.5-9.25
			c5.97,0,11.15,2.17,12.59,5.29c0.62,1.34,1.95,2.2,3.4,2.2c0.39,0,0.79-0.06,1.16-0.19l0.27-0.09c0.96-0.32,1.73-0.99,2.17-1.9
			c0.44-0.9,0.5-1.91,0.16-2.85c-2.51-7.04-13.34-9.59-20-9.59c-10.32,0-20.76,5.75-20.76,16.75c0,11.08,10.3,15.15,19.41,18.75
			l0.11,0.04c8.58,3.17,16.68,6.17,16.68,13.16c0,4.8-4.64,9.97-14.83,9.97c-6.99,0-14.83-2.46-16.28-7.17
			c-0.46-1.48-1.89-2.52-3.49-2.52c-0.12,0-0.25,0.01-0.37,0.02l-0.07,0.01c-1.08,0.13-2.05,0.72-2.65,1.63
			c-0.6,0.91-0.77,2.02-0.47,3.06c2.08,7.13,11.47,12.11,22.84,12.11c13.65,0,22.82-7.07,22.82-17.6
			C540.23,85.54,529.01,81.22,519.99,77.75z"/>
	</g>
	<path class="st1" d="M49.03,33.69c0,0-0.32-13.21,5.7-19.97C60.74,6.96,71.5,4.38,71.5,4.38c-0.75,9.85-2.64,22.17-12.58,26.67
		C54.29,33.16,49.03,33.69,49.03,33.69"/>
	<path class="st1" d="M43.73,33.07c0,0-7.33-2.6-9.77-7.44c-2.46-4.84-1.61-11.49-1.61-11.49c5.25,2.5,11.63,6.16,12.02,12.75
		C44.54,29.97,43.73,33.07,43.73,33.07z"/>
	<path class="st0" d="M47.43,4.39c-0.54-1.83-2.04-2.97-3.94-2.97c-1.43,0-2.82,0.66-3.62,1.73c-0.73,0.97-0.92,2.21-0.55,3.49
		c2.83,9.68,3.96,18.08,3.56,26.42c-0.06,1.15,0.29,2.15,0.99,2.89c0.74,0.77,1.84,1.22,3.04,1.22c0,0,0,0,0,0
		c2.08,0,4.26-1.39,4.39-4.05C51.72,24.16,50.46,14.76,47.43,4.39z"/>
</g>
</svg>
